<svg id="Graphic_-_Logo_-_GFF_Color" data-name="Graphic - Logo - GFF Color" xmlns="http://www.w3.org/2000/svg" width="185.205" height="63" viewBox="0 0 185.205 63">
  <path id="Path_13279" data-name="Path 13279" d="M84.1,243.311c3.047-3.786,7.11-9.911,7.11-9.911,2.124,1.262,4.278,2.77,4.278,2.77-1.077,2.093-7.079,10-7.079,10a40.672,40.672,0,0,0-4.309-2.863" transform="translate(-64.46 -229.182)" fill="#444"/>
  <path id="Path_13280" data-name="Path 13280" d="M109.84,251.9a95.066,95.066,0,0,1,7.941,6.433c-1.724,2.709-3.909,5.664-3.909,5.664a80.732,80.732,0,0,0-7.972-6.587c1.97-2.647,3.94-5.51,3.94-5.51" transform="translate(-79.55 -241.954)" fill="#444"/>
  <path id="Path_13281" data-name="Path 13281" d="M136.21,267.4c2.832,2.555,4.525,4.34,4.525,4.34-3.263,5.294-7.11,10.281-7.11,10.281-2.216-2.247-4.525-4.463-4.525-4.463a113.644,113.644,0,0,0,7.11-10.158" transform="translate(-95.511 -252.663)" fill="#1fa29c"/>
  <path id="Path_13282" data-name="Path 13282" d="M66.994,265.1a61.039,61.039,0,0,1,7.757,5.14c-2.062,2.709-3.971,4.74-3.971,4.74a78.69,78.69,0,0,0-7.88-5.233,56.335,56.335,0,0,0,4.094-4.648" transform="translate(-49.788 -251.079)" fill="#1fa29c"/>
  <path id="Path_13283" data-name="Path 13283" d="M92.864,277.1c.462.339,4.432,3.6,4.432,3.6-2.432,3.447-7.233,8.711-7.233,8.711-2.247-2.062-4.463-3.786-4.463-3.786,1.754-1.6,7.264-8.526,7.264-8.526" transform="translate(-65.499 -259.37)" fill="#1fa29c"/>
  <path id="Path_13284" data-name="Path 13284" d="M49.549,286.1c1.724,1.016,4.309,2.924,4.309,2.924a84.582,84.582,0,0,1-7.387,7.079c-2.709-1.97-4.371-2.986-4.371-2.986a76.98,76.98,0,0,0,7.449-7.018" transform="translate(-35.39 -265.593)" fill="#444"/>
  <path id="Path_13285" data-name="Path 13285" d="M24.548,307.2c3.909,2.4,7.818,5.417,7.818,5.417-2.062,1.724-4.217,3.17-4.217,3.17a75.622,75.622,0,0,0-7.849-5.54c2.4-1.6,4.248-3.047,4.248-3.047" transform="translate(-20.3 -280.178)" fill="#444"/>
  <path id="Path_13286" data-name="Path 13286" d="M64.2,306.94c1.878-1.631,4.155-3.94,4.155-3.94,3.817,2.832,7.972,6.741,7.972,6.741a48.543,48.543,0,0,1-4.063,4.032c-4.494-4.063-8.064-6.833-8.064-6.833" transform="translate(-50.687 -277.272)" fill="#1fa29c"/>
  <path id="Path_13287" data-name="Path 13287" d="M50.572,322.3C52.85,324.178,55,326.086,55,326.086a57.4,57.4,0,0,1-7.572,5.756C45.124,329.78,43,327.964,43,327.964a61.465,61.465,0,0,0,7.572-5.664" transform="translate(-36.011 -290.614)" fill="#1fa29c"/>
  <path id="Path_13288" data-name="Path 13288" d="M111.932,298c4.309,3.817,8.157,8.034,8.157,8.034-2.062,2.739-4,4.894-4,4.894-3.109-3.386-8.188-8.126-8.188-8.126,2.586-2.863,4.032-4.8,4.032-4.8" transform="translate(-80.937 -273.813)" fill="#1fa29c"/>
  <path id="Path_13289" data-name="Path 13289" d="M94.887,321.6c2.4,2.309,4.494,4.525,4.494,4.525a69.846,69.846,0,0,1-7.387,7.357L87.5,328.833a71.445,71.445,0,0,0,7.387-7.233" transform="translate(-66.816 -290.126)" fill="#1fa29c"/>
  <path id="Path_13290" data-name="Path 13290" d="M69.717,341.7c5.325,5.017,8.157,8.311,8.157,8.311a42.534,42.534,0,0,1-4.217,3.324c-4.4-4.925-8.157-8.434-8.157-8.434,2.586-1.878,4.217-3.2,4.217-3.2" transform="translate(-51.585 -304.018)" fill="#444"/>
  <path id="Path_13291" data-name="Path 13291" d="M155.54,292.2c6.064,6.433,8.249,9.357,8.249,9.357-1.662,2.739-3.878,5.787-3.878,5.787-4.463-5.54-8.311-9.48-8.311-9.48,2.37-3.263,3.94-5.664,3.94-5.664" transform="translate(-111.062 -269.802)" fill="#444"/>
  <path id="Path_13292" data-name="Path 13292" d="M139.033,320.2c.77.893,4.617,5.263,4.617,5.263a108.065,108.065,0,0,1-7.233,8.957c-3.232-3.817-4.617-5.325-4.617-5.325a110.047,110.047,0,0,0,7.233-8.9" transform="translate(-97.374 -289.153)" fill="#444"/>
  <path id="Path_13293" data-name="Path 13293" d="M114.194,345c4.617,4.986,8.372,9.634,8.372,9.634-2.185,2.4-4.125,4.217-4.125,4.217-4.8-6.095-8.341-9.727-8.341-9.727,2.524-2.37,4.094-4.125,4.094-4.125" transform="translate(-82.46 -306.292)" fill="#1fa29c"/>
  <path id="Path_13294" data-name="Path 13294" d="M96.572,366.6c1.416,1.631,4.586,5.387,4.586,5.387a65.767,65.767,0,0,1-7.541,6.033L89,372.51a71.126,71.126,0,0,0,7.572-5.91" transform="translate(-67.855 -321.206)" fill="#444"/>
  <path id="Path_13295" data-name="Path 13295" d="M239.976,230.542c.031,2.4-.215,4.371-1.847,6.279a8.8,8.8,0,0,1-6.587,2.955,9.189,9.189,0,1,1,7.634-14.528l-1.447,1.354a7.217,7.217,0,0,0-6.095-3.355,7.37,7.37,0,0,0-7.264,7.418,7.159,7.159,0,0,0,2.062,5.017,7.471,7.471,0,0,0,5.048,2.278c3.078,0,6.341-2.278,6.341-5.571h-5.263v-1.847Z" transform="translate(-159.999 -220.876)" fill="#444"/>
  <path id="Path_13296" data-name="Path 13296" d="M290.17,238.344h4.894v1.847H288.2V222.4h1.97Z" transform="translate(-205.495 -221.569)" fill="#444"/>
  <path id="Path_13297" data-name="Path 13297" d="M329.63,230.7a9.265,9.265,0,1,1-9.265-9.2,9.215,9.215,0,0,1,9.265,9.2m-16.56-.031a7.3,7.3,0,1,0,7.295-7.357,7.363,7.363,0,0,0-7.295,7.357" transform="translate(-221.308 -220.946)" fill="#444"/>
  <path id="Path_13298" data-name="Path 13298" d="M379.531,222.4h2.924c3.232,0,5.941,1.17,5.941,4.8a4,4,0,0,1-1.754,3.478A4.511,4.511,0,0,1,390,235.235c0,3.54-2.863,4.956-6.372,4.956H379.5V222.4Zm1.97,7.818h.739c2.247,0,4.155-.246,4.155-3.016,0-2.678-1.693-2.955-4.125-2.955h-.77Zm0,8.126h1.97c2.216,0,4.556-.554,4.556-3.263,0-2.77-2.647-3.17-4.8-3.17H381.5Z" transform="translate(-268.605 -221.569)" fill="#444"/>
  <path id="Path_13299" data-name="Path 13299" d="M421.609,233.274l-2.155,5.048H417.3l8.188-18.622,8,18.622h-2.185l-2.093-5.048Zm3.848-8.957-3.047,7.11h6Z" transform="translate(-294.722 -219.7)" fill="#444"/>
  <path id="Path_13300" data-name="Path 13300" d="M479.7,238.344h4.894v1.847H477.7V222.4h2Z" transform="translate(-336.495 -221.569)" fill="#444"/>
  <path id="Path_13301" data-name="Path 13301" d="M231.047,296.786v3.94h5.017v3.016h-5.017v7.818H227.6V293.8h8.8v2.986Z" transform="translate(-163.601 -270.901)" fill="#1fa29c"/>
  <rect id="Rectangle_35517" data-name="Rectangle 35517" width="3.478" height="17.76" transform="translate(74.239 22.866)" fill="#1fa29c"/>
  <path id="Path_13302" data-name="Path 13302" d="M279.9,293.731l2.832-.031,9.019,11.974h.031V293.7h3.478v17.791H292.52l-9.111-12.066h-.062v12.066H279.9Z" transform="translate(-199.745 -270.833)" fill="#1fa29c"/>
  <path id="Path_13303" data-name="Path 13303" d="M337.91,307.805l-1.447,3.755H332.8l6.741-17.76h2.986l6.618,17.76h-3.694l-1.354-3.755Zm2.986-9.3h-.031l-1.97,6.464h4.217Z" transform="translate(-236.312 -270.901)" fill="#1fa29c"/>
  <path id="Path_13304" data-name="Path 13304" d="M388.9,293.7l2.863.031,8.988,11.943h.062V293.731h3.447v17.76H401.52l-9.111-12.066h-.031v12.066H388.9Z" transform="translate(-275.093 -270.833)" fill="#1fa29c"/>
  <path id="Path_13305" data-name="Path 13305" d="M456.812,297.4a5.134,5.134,0,0,0-3.909-1.878c-3.324,0-5.233,3.078-5.233,6.125,0,2.986,1.97,5.971,5.2,5.971a5.465,5.465,0,0,0,3.94-1.878v4.125a9.235,9.235,0,0,1-4.032,1.047c-4.986,0-8.68-4.309-8.68-9.2,0-5.048,3.571-9.511,8.772-9.511a8.14,8.14,0,0,1,3.971,1.046V297.4Z" transform="translate(-313.257 -269.794)" fill="#1fa29c"/>
  <rect id="Rectangle_35518" data-name="Rectangle 35518" width="3.478" height="17.76" transform="translate(145.731 22.866)" fill="#1fa29c"/>
  <path id="Path_13306" data-name="Path 13306" d="M511.5,293.7h2.863l8.988,11.974h.031V293.7h3.478v17.791h-2.74l-9.111-12.066h-.061v12.066H511.5Z" transform="translate(-359.784 -270.833)" fill="#1fa29c"/>
  <path id="Path_13307" data-name="Path 13307" d="M583.06,301.072v.462c0,5.017-2.555,9.48-8.1,9.48-5.171,0-8.465-4.371-8.465-9.3,0-5.079,3.355-9.419,8.68-9.419a7.654,7.654,0,0,1,7.018,4.248l-3.078,1.662a4.53,4.53,0,0,0-4.063-2.832c-3.355,0-4.986,3.417-4.986,6.372s1.662,6.218,5.017,6.218a4.222,4.222,0,0,0,4.063-4.032h-3.786V301.1h7.7Z" transform="translate(-397.855 -269.864)" fill="#1fa29c"/>
  <path id="Path_13308" data-name="Path 13308" d="M229.37,366.847v5.263h5.91v1.847h-5.91v8.8H227.4V365h8.064v1.847Z" transform="translate(-163.464 -320.098)" fill="#444"/>
  <path id="Path_13309" data-name="Path 13309" d="M257.009,375.874l-2.155,5.048H252.7l8.188-18.622,8,18.622h-2.185l-2.093-5.048Zm3.848-8.957-3.047,7.11h6Z" transform="translate(-180.945 -318.229)" fill="#444"/>
  <path id="Path_13310" data-name="Path 13310" d="M320.059,368.286a7.708,7.708,0,0,0-5.417-2.37,7.359,7.359,0,0,0,.031,14.713,7.825,7.825,0,0,0,5.387-2.37v2.462a9.166,9.166,0,0,1-14.559-7.357,9.314,9.314,0,0,1,9.265-9.265,8.432,8.432,0,0,1,5.294,1.754Z" transform="translate(-217.445 -319.475)" fill="#444"/>
  <rect id="Rectangle_35519" data-name="Rectangle 35519" width="1.97" height="17.76" transform="translate(105.571 45.056)" fill="#444"/>
  <path id="Path_13311" data-name="Path 13311" d="M381.17,380.944h4.894v1.847H379.2V365h1.97Z" transform="translate(-268.405 -320.098)" fill="#444"/>
  <rect id="Rectangle_35520" data-name="Rectangle 35520" width="1.97" height="17.76" transform="translate(120.141 44.902)" fill="#444"/>
  <path id="Path_13312" data-name="Path 13312" d="M430.248,382.791h-1.97V366.847H424V365h10.588v1.847h-4.34Z" transform="translate(-299.366 -320.098)" fill="#444"/>
  <path id="Path_13313" data-name="Path 13313" d="M466.3,365h2.309l4.525,7.941L477.658,365h2.278l-5.817,10.158v7.6h-2v-7.6Z" transform="translate(-328.601 -320.098)" fill="#444"/>
</svg>
